Coordinates
version=1
nRows=14
nColumns=24
inDegrees=yes

Units are S.I. units (second, meters, Newtons, ...)
Angles are in degrees.

endheader
time	pelvis_tilt	pelvis_list	pelvis_rotation	pelvis_tx	pelvis_ty	pelvis_tz	hip_flexion_r	hip_adduction_r	hip_rotation_r	knee_angle_r	ankle_angle_r	subtalar_angle_r	mtp_angle_r	hip_flexion_l	hip_adduction_l	hip_rotation_l	knee_angle_l	ankle_angle_l	subtalar_angle_l	mtp_angle_l	lumbar_extension	lumbar_bending	lumbar_rotation
      0.78333333	      0.15000308	     -1.36334324	     -2.31378052	     -0.49454859	      1.08064362	      0.36536321	      9.36728654	      5.66414135	     -4.74829162	    -11.67311698	     -1.77509554	     -5.49263887	      4.15990105	     13.07689138	     -0.66061969	     -1.70831952	    -64.00583564	     -0.96931474	    -11.15372800	     21.21063535	      3.25844507	      6.32637424	     -0.18280195
      0.78750000	      0.17605067	     -1.29515908	     -2.27220917	     -0.48961304	      1.08131800	      0.36545576	      9.00455194	      5.60063517	     -4.66802102	    -11.58754030	     -1.62887046	     -5.57170466	      4.15501364	     13.64451105	     -0.55324898	     -1.40840963	    -63.95707262	     -0.43262319	    -11.48806857	     21.10244641	      3.19310524	      6.19097804	     -0.12132698
      0.79166667	      0.19614780	     -1.22155667	     -2.26787371	     -0.48463166	      1.08198803	      0.36556910	      8.65026250	      5.53347299	     -4.59471362	    -11.50628733	     -1.49252472	     -5.65210527	      4.14891293	     14.19161961	     -0.44180235	     -1.14745742	    -63.82390325	      0.02475343	    -11.80378296	     20.97534422	      3.13907537	      6.11139776	     -0.06260303
      0.79583333	      0.22169175	     -1.13368922	     -2.29621974	     -0.47966987	      1.08264710	      0.36563946	      8.29886931	      5.44584836	     -4.53497308	    -11.44507167	     -1.34990523	     -5.75526238	      4.13789434	     14.71359699	     -0.30807924	     -0.91422716	    -63.62436299	      0.44321675	    -12.16091176	     20.76161698	      3.08020815	      6.05835867	      0.01558294
      0.80000000	      0.25216301	     -1.07512708	     -2.29011456	     -0.47478142	      1.08327095	      0.36575237	      7.92459731	      5.39583486	     -4.36750071	    -11.34388278	     -1.28255255	     -5.76554760	      4.13458213	     15.23125540	     -0.20392295	     -0.61984659	    -63.38531179	      0.65179991	    -12.35454375	     20.68436105	      3.01655608	      5.96214785	      0.06345825
      0.80416667	      0.28060966	     -1.03048879	     -2.29115666	     -0.46974790	      1.08390677	      0.36595409	      7.53817973	      5.37283919	     -4.27067606	    -11.21367562	     -1.12494380	     -5.85145952	      4.12759089	     15.72041186	     -0.12495077	     -0.36314519	    -63.07546144	      1.05926758	    -12.77966314	     20.54936675	      2.95196726	      5.84457180	      0.14397226
      0.80833333	      0.32846613	     -0.95353889	     -2.35447542	     -0.46483173	      1.08453875	      0.36599984	      7.16311198	      5.29278917	     -4.18897379	    -11.15057145	     -0.96584343	     -5.97424043	      4.11282215	     16.17248811	      0.00705348	     -0.14903146	    -62.69852879	      1.35836792	    -13.31866779	     20.29446723	      2.83846497	      5.81872509	      0.25001679
      0.81250000	      0.37433751	     -0.89899056	     -2.38729904	     -0.45988916	      1.08513929	      0.36612452	      6.76481058	      5.24823129	     -4.05080049	    -11.03405765	     -0.83615355	     -6.05437684	      4.09454058	     16.61427634	      0.11042639	      0.09992752	    -62.27006803	      1.55274594	    -13.85386179	     19.98643746	      2.75029477	      5.73666166	      0.38119923
      0.81666667	      0.39480686	     -0.88014589	     -2.39109334	     -0.45495119	      1.08566940	      0.36630473	      6.37792717	      5.25109962	     -3.87276200	    -10.88370536	     -0.76181311	     -6.06050877	      4.08736250	     17.07685958	      0.17009954	      0.38742904	    -61.80764232	      1.69666426	    -14.13566528	     19.85749060	      2.69751857	      5.66225146	      0.44602778
      0.82083333	      0.44004065	     -0.83178094	     -2.43503598	     -0.44996847	      1.08622769	      0.36641714	      5.97259253	      5.21034657	     -3.74533644	    -10.76084984	     -0.61309425	     -6.14502424	      4.07591922	     17.47769662	      0.26952406	      0.63268821	    -61.26530179	      1.93501701	    -14.67128242	     19.67657608	      2.63810036	      5.58556878	      0.53579185
      0.82500000	      0.57744071	     -0.76183676	     -2.53619873	     -0.44504518	      1.08692791	      0.36646819	      5.47852328	      5.13159154	     -3.61168381	    -10.64369523	     -0.54411559	     -6.21773096	      4.00346239	     17.75114926	      0.39792367	      0.81450796	    -60.61062303	      1.58947840	    -15.70911386	     18.64726355	      2.41173541	      5.59603811	      0.85643892
      0.82916667	      0.55458051	     -0.75917126	     -2.55403890	     -0.44016034	      1.08728562	      0.36660185	      5.14284753	      5.14870887	     -3.45308146	    -10.50522852	     -0.40058668	     -6.25762822	      3.99309520	     18.21573385	      0.44566593	      1.10144130	    -60.01412347	      1.93052893	    -16.03342405	     18.49259355	      2.35689677	      5.52651388	      0.89123803
      0.83333333	      0.59789124	     -0.72382312	     -2.64691260	     -0.43531272	      1.08774402	      0.36671715	      4.74727202	      5.11863183	     -3.26720546	    -10.38243658	     -0.26342091	     -6.36321305	      3.93881598	     18.57350016	      0.52371453	      1.29801752	    -59.30165404	      1.80554858	    -16.96538541	     17.78913494	      2.16540620	      5.50985272	      1.01912336
      0.83750000	      0.62010087	     -0.70090112	     -2.67777605	     -0.43023878	      1.08817899	      0.36680149	      4.33768788	      5.10232622	     -3.16413483	    -10.20555552	     -0.17399514	     -6.39193707	      3.92778965	     18.91877509	      0.59984068	      1.57489145	    -58.54153615	      2.01496480	    -17.25218478	     17.64626831	      2.23915542	      5.46561218	      1.06986464
